<svg id="Logo-Uglechepole-CMYK" xmlns="http://www.w3.org/2000/svg" viewBox="0 0 358.73 110.4"><defs><radialGradient id="radial-gradient" cx="52.13" cy="56.85" r="53.09" gradientUnits="userSpaceOnUse"><stop offset=".1" stop-color="#4a3d36"/><stop offset="1"/></radialGradient><style>.cls-2{fill:#fff}</style></defs><path d="M5.56 27.37C10.87 21.3 37.44 5.75 47.89 2.31A13.86 13.86 0 0156 2.2C66 5.32 92.23 20.58 98.35 27a11.84 11.84 0 012.65 4.54c2.57 8.33 2.66 39.83.25 49.67a13 13 0 01-3.52 6.06c-7.13 6.78-32.67 21.52-42.1 24.3a13.24 13.24 0 01-7.28-.06c-9.46-2.9-34.1-17.1-41.58-24A13.46 13.46 0 012.92 81C.54 70.75.68 39.08 3.32 31.26a11.86 11.86 0 012.24-3.89z" transform="translate(-1.23 -1.65)" fill="url(#radial-gradient)"/><path d="M37.26 34.5A28.47 28.47 0 0034 38.44a66.21 66.21 0 01-7.63 10.09c-1 .94-2.05.45-1.7-1.41.48-2.44 3.25-11.68 3.16-12.19a.74.74 0 00-.55-.64 34.86 34.86 0 00-6.5 1.62 19.39 19.39 0 00-4.5 2c-.34.2-.86.51-.82 1.93.06 2.24-.34 3.57.68 3.55.15-2.16 5.57-4.38 9.16-5.7-1.59 4-4.48 10.8-4.74 11.84-.38 1.57-.53 2.45.26 2.94a9.93 9.93 0 002.69 1.06c1.27.3 5.83-5.45 10.69-12.71.3.15.19.33 0 .82a131.74 131.74 0 01-9.66 16.9c-1.91 2.85-2.61 3.34-3.8 3.86-.89.37-3 1.08-4.23-.11-1.49.51-4.27 4.57-4.58 6a9.88 9.88 0 004 .74 6.77 6.77 0 004.49-2.3c3.9-4 10.25-13.39 13.7-19.32 2-3.52 6.83-9.8 8.7-13.92-2.46-1.08-5.56 1.01-5.56 1.01zm-.32 11.88a86.6 86.6 0 018.12-3.68c1.24-.47 1.57 1.71 1.58 2.07s-4.58 9-5.09 9.9a.53.53 0 00.84.24c1.63-.94 3.76-2.82 4.8-3.47 1.44-.89 1.51-.53 1.39-.1a53.15 53.15 0 01-6.29 5.94c-1.29 1-2.29.65-4.1-1.18-.84-.86-.56-1.53.76-3.08 1.58-1.86 6-7.61 6-7.61s-7 2.86-6.08 4.53a2.7 2.7 0 01-2.12-1.29c-.84-1.06-.96-1.58.19-2.27z" transform="translate(-1.23 -1.65)"/><path d="M48.61 51.3a.7.7 0 00-1-.52A7.74 7.74 0 0045.4 54c-.15.72 1.09 1.61 2.22 2.36a1.26 1.26 0 001.63-.2c2.08-2.29 6.21-8.34 7.44-10 1.36-1.85 1.63-2.26 1.63-2.26l-1.19.16S52.92 49.17 51 51c-1 1-1.82 1.88-2.32 2.26-.03-.77-.03-1.62-.07-1.96z" transform="translate(-1.23 -1.65)"/><path d="M56.27 43.84c.2-.88 2.79-.16 3.28.18a1.26 1.26 0 01.23 1.84S58.23 49.5 57.67 51a17.25 17.25 0 00-.52 1.71c-.25.89.48.89.81.71a49.64 49.64 0 004.93-3.28c2.39-1.86 4.24-3.09 4.51-3.76s-.91-1.48-1.4-1.3-1.25 1.61-2 4a12.16 12.16 0 00-.67 3.51.77.77 0 001.28.55c2.35-1.67 8.65-6.94 8.65-6.94l.34.89s-7.22 6.9-9.81 8.41c-1.32.77-1.86.06-3-1.12-.64-.67.07-3.91 1.6-6.19a33.16 33.16 0 014.47-5.48c1.15-.86 2.86-.67 3-.21.26.91 1.1 2.33.2 3.51s-9.88 7.45-12.12 8.9c-1.7 1.09-2.22 1.61-2.99 1.09-1.18-.84-1.21-1.45-.75-2.44.86-1.88 3.24-6.53 3.13-7a1.44 1.44 0 00-1.6-.85z" transform="translate(-1.23 -1.65)"/><path d="M76.3 38.32c.84-.53 2.08 1.42 2.34 1.94.37.74-2 3.3-3.93 5.31-.06 1.2 0 1.26.34 1.45s1.69.17 3.39-1.54A3.29 3.29 0 0180.06 47c.24.43-.39 3-1.07 4.53s-1 2.36.11 1.72a71 71 0 007.31-5.48c.92-.8 1.29-1.38.42-2.09-.52-.42-1.12-.91-1.84 1a24 24 0 00-1.12 5.26c0 .43 0 1.36 1 1.29 2.05-.13 4.72-2.83 6.35-4.38 1.47-.21 2.74-.06 3.06.36.14.43-2.91 2.91-4.59 4.07-1.85 1.28-4.8 2.42-5.84 1.63-.77-.59-2.63-2.94-2.14-4.92s3.63-6.26 4.53-6.68 3.45.53 4.35 1 .59 1.9-.65 2.83c-2.4 1.79-10.21 7.21-12.63 8.34a1.59 1.59 0 01-1.84-.55 1.48 1.48 0 01-.69-1.22c.56-1.82 2.86-5.58 3.41-6.67-2.28 2-5.58 2.44-6-.54-.48-3.71 3.6-7.79 4.11-8.18zm-22.66 24.4c-5.7.51-19.37 2.62-23 3.8-4.79 1.54-5.36 4.14-5.42 6.66-.1 4.16 4.68 2.56 8.39 1.07a48.7 48.7 0 006.58-3.31 31.89 31.89 0 00-2.77 3.83c-1.57 2.48-8.34 13.39-11 16.94 1.21 1.87 5.89.16 6.29-.84.79-2 9-18.2 10.71-20.71.37-.53-2.57-1.65-2.57-1.65a9.37 9.37 0 01-4 2.85c-2.07.83-6.36 2.74-6.11.27.18-1.83.56-2.93 1.92-3.39 4.91-1.62 14.29-2.68 18.82-3.16 11.81-1.21 23.7-1 35.51-1.14 1.49 0 3.09-1 4.22-3.48-4.56-.2-27.21 1.34-37.57 2.26z" transform="translate(-1.23 -1.65)"/><path d="M46.6 69c-.58.83-5.54 13.62-6 14.5s.16 3.12.39 3.82a.77.77 0 001.32.31c.43-.35 4.45-11.75 5.22-13.77s2-4.61 2-4.61a1.69 1.69 0 00-1.07-.62 4 4 0 00-1.86.37zm8.86 7.67c-.22.47.25.88.55 1.52s-1.49 4.81-4.77 5.87c-.95.3-1.09-2.33-.75-3.35.43-1.29 2.23-4.52 3.76-4.06.28-1.21.7-4.62-.57-4.75S51 74.13 50.2 75.49a23.42 23.42 0 00-1.88 3.69 11.32 11.32 0 00.6 5.46c.32.68.89 1.47 1.76 1.23a12.51 12.51 0 004-2c1.76-1.21 4.46-4 4.62-5.2a5 5 0 00-1.75-3.86 2.9 2.9 0 00-2.09 1.86z" transform="translate(-1.23 -1.65)"/><path d="M70.93 68.4c-.84-.07-6.82.54-9.2.91-1.59.24-4.36.5-5.08 1.58-.49.72.66 4.6.66 4.6s.34.62.43.1A2.55 2.55 0 0159.17 73a51 51 0 016.9-2.57 45.46 45.46 0 015.3-1.1s.42-.87-.44-.93z" transform="translate(-1.23 -1.65)"/><path d="M68.46 69.09c-1.28 1.79-6.14 9.59-7.24 10.79a3.79 3.79 0 01-1.52 1.23c-.16.38 1.59 1.08 2 1.24.94.35 1.34-.44 2-1.44s3.95-7.44 5.26-10.69a.88.88 0 01.69-.47 14.75 14.75 0 01-.43 2.34c-.14.52-1.28 5.63-1.28 6.3s1.67 1.54 2.38 1.86c.91.4 2.6-.64 3.42-1.3 1.14-.92 6.13-5.07 7.43-6.08a8.43 8.43 0 002.54-2.38c.45-.76-.53-2.4-1.46-3.1s-2.12-.23-3.11.76a15.46 15.46 0 00-3.5 5.7c-.55 1.86-1.21 4.21-.47 5 1 1.09 2.1 2.16 3.51 1.65a48.83 48.83 0 008.11-5c1.06-.88-2.13-2.31-2.13-2.31a7.21 7.21 0 01-1.26 1.55 30.83 30.83 0 01-4.08 3.08c-.9.44-3.48.36-2.82-2.37.52-2.15 1.44-4.94 2.86-5.64.8-.4 1.09.49 1.23.88.28.72-2.14 2.55-4.33 4.63a24.6 24.6 0 01-3.88 3c-.58.38-1.28-.6-1.21-1.25.13-.93 1.23-7.73 1.23-8.6s-3.94.62-3.94.62zM51.9 25c-.05 2.39 1.61 6.72 4.57 6.22 3.76-.62 3.57-5.72 2.42-8.49a5.51 5.51 0 00-7.36-3c-2.36 1.1-3.33 3.69-3.3 6.16a17.85 17.85 0 002.86 9.61c1.89 2.85 6.56 1.29 8.86-.09 1.83-1.1 9.67-6.43 6.51-9.52-2.32-2.28-6.34-.28-8.29 1.48-.43.4 1 .54 1.3.22 3.77-3.41 6.08.25 3.73 3.41-1.62 2.18-6.93 6.48-9.37 4.21-2.22-2.06-4.33-10.27-2.83-13.42 1.38-2.83 4.34-.93 5.39 1.34 1.14 2.47 1.06 7.43-.47 6.55s-2.25-3.58-2.21-5.21c0-.35-1.84-.08-1.85.5z" transform="translate(-1.23 -1.65)"/><path class="cls-2" d="M36.48 33.73a28.93 28.93 0 00-3.25 3.92c-3.34 5.08-5.73 8.21-7.63 10.09-1 .94-2 .46-1.7-1.39.48-2.44 3.26-11.69 3.16-12.2a.73.73 0 00-.54-.63A33.13 33.13 0 0020 35.14a18.79 18.79 0 00-4.5 2c-.34.21-.87.52-.82 1.93.06 2.25-.34 3.58.68 3.56.15-2.16 5.57-4.38 9.16-5.7-1.59 4-4.48 10.8-4.74 11.84-.38 1.57-.53 2.46.26 3a10.27 10.27 0 002.68 1.06c1.28.29 5.84-5.45 10.7-12.72.29.14.19.34 0 .81a131.65 131.65 0 01-9.66 16.9c-1.91 2.85-2.61 3.34-3.8 3.86-.89.37-3 1.07-4.23-.11-1.49.51-4.27 4.57-4.58 6a9.87 9.87 0 004 .76A6.78 6.78 0 0019.66 66c3.9-4 10.24-13.4 13.69-19.32 2-3.51 6.84-9.79 8.71-13.91-2.46-1.13-5.58.96-5.58.96zm-.31 11.89a86 86 0 018.12-3.69c1.24-.46 1.58 1.72 1.59 2.07s-4.58 9-5.1 9.9a.54.54 0 00.85.24c1.63-.94 3.76-2.83 4.8-3.48 1.44-.9 1.51-.52 1.39-.1a53 53 0 01-6.29 5.95c-1.28 1-2.3.65-4.1-1.18-.83-.87-.56-1.52.76-3.08 1.58-1.86 6-7.61 6-7.61s-7 2.85-6.08 4.53A2.69 2.69 0 0136 47.88c-.86-1.07-1-1.59.17-2.26z" transform="translate(-1.23 -1.65)"/><path class="cls-2" d="M47.83 50.53a.7.7 0 00-1-.52 7.75 7.75 0 00-2.2 3.25c-.15.73 1.08 1.62 2.21 2.37a1.27 1.27 0 001.64-.19c2.08-2.3 6.21-8.35 7.44-10 1.36-1.84 1.63-2.26 1.63-2.26l-1.19.16s-4.21 5.08-6.14 7c-1 1-1.81 1.88-2.31 2.26-.02-.88-.02-1.73-.08-2.07z" transform="translate(-1.23 -1.65)"/><path class="cls-2" d="M55.51 43.07c.2-.89 2.78-.16 3.28.17A1.27 1.27 0 0159 45.1s-1.55 3.63-2.11 5.16a17.38 17.38 0 00-.52 1.74c-.25.89.49.88.8.7a49.82 49.82 0 004.94-3.28c2.38-1.86 4.24-3.08 4.5-3.76s-.91-1.49-1.39-1.3-1.26 1.61-2 4a11.81 11.81 0 00-.67 3.51.77.77 0 001.28.55c2.35-1.67 8.66-6.94 8.66-6.94l.32.89s-7.21 6.9-9.8 8.41c-1.32.78-1.86.06-3-1.13-.64-.66.07-3.91 1.6-6.19A33.46 33.46 0 0166 41.92c1.15-.86 2.86-.66 3-.21.26.92 1.1 2.33.21 3.51s-9.89 7.46-12.12 8.91c-1.63 1.07-2.15 1.62-2.93 1.08-1.18-.83-1.2-1.45-.74-2.45.86-1.88 3.25-6.52 3.13-7a1.44 1.44 0 00-1.6-.85z" transform="translate(-1.23 -1.65)"/><path class="cls-2" d="M75.53 37.55c.84-.52 2.08 1.42 2.34 1.93.37.74-2 3.3-3.93 5.32-.05 1.19 0 1.26.35 1.44s1.69.17 3.39-1.53a3.3 3.3 0 011.61 1.47c.24.43-.39 3-1.08 4.52s-1 2.37.12 1.73a69.84 69.84 0 007.3-5.49c.92-.79 1.3-1.38.42-2.09-.51-.42-1.11-.91-1.83 1a23.71 23.71 0 00-1.13 5.26c0 .44 0 1.36 1 1.28 2.06-.13 4.72-2.83 6.36-4.38 1.47-.21 2.74-.06 3.07.36.13.42-2.92 2.91-4.6 4.07-1.85 1.28-4.79 2.43-5.82 1.63-.78-.59-2.63-2.95-2.15-4.92s3.63-6.26 4.53-6.67 3.45.52 4.35 1 .6 1.91-.65 2.82c-2.4 1.79-10.21 7.22-12.64 8.34a1.58 1.58 0 01-1.84-.55 1.48 1.48 0 01-.7-1.18c.56-1.82 2.86-5.58 3.41-6.67-2.28 2-5.58 2.44-6-.53-.48-3.71 3.59-7.76 4.12-8.16zM52.87 62c-5.7.51-19.37 2.62-23 3.79-4.8 1.55-5.35 4.14-5.42 6.66-.1 4.17 4.68 2.57 8.39 1.07a48.26 48.26 0 006.58-3.31 32.38 32.38 0 00-2.8 3.79c-1.57 2.47-8.34 13.39-11 16.94 1.2 1.87 5.89.16 6.29-.83.78-2 9-18.21 10.72-20.72.36-.53-2.58-1.66-2.58-1.66a9.37 9.37 0 01-4 2.85c-2.07.83-6.35 2.73-6.11.26.17-1.82.56-2.94 1.92-3.39 4.91-1.62 14.29-2.68 18.82-3.15 11.82-1.21 23.71-1 35.52-1.14 1.47 0 3.09-1 4.22-3.48C85.88 59.49 63.25 61 52.87 62z" transform="translate(-1.23 -1.65)"/><path class="cls-2" d="M45.84 68.23c-.58.83-5.55 13.62-6 14.5s.16 3.13.39 3.82a.77.77 0 001.32.31C42 86.5 46 75.12 46.78 73.09s2-4.6 2-4.6a1.66 1.66 0 00-1.07-.63 4 4 0 00-1.87.37zm8.85 7.67c-.21.48.25.88.55 1.52s-1.5 4.83-4.77 5.87c-.95.3-1.09-2.33-.75-3.36.43-1.28 2.23-4.52 3.76-4.05.28-1.21.69-4.62-.57-4.76s-2.71 2.24-3.48 3.61a23.28 23.28 0 00-1.88 3.69 11.37 11.37 0 00.6 5.47 1.65 1.65 0 001.76 1.23 12.55 12.55 0 004-2c1.76-1.22 4.47-4 4.62-5.2a5 5 0 00-1.75-3.86 2.89 2.89 0 00-2.09 1.84z" transform="translate(-1.23 -1.65)"/><path class="cls-2" d="M70.17 67.63c-.85-.07-6.83.54-9.21.92-1.59.25-4.35.5-5.08 1.57-.49.73.66 4.61.66 4.61s.34.62.43.1a2.57 2.57 0 011.44-2.56 50.8 50.8 0 016.89-2.57 44.82 44.82 0 015.3-1.1s.4-.91-.43-.97z" transform="translate(-1.23 -1.65)"/><path class="cls-2" d="M67.69 68.31c-1.28 1.79-6.15 9.58-7.23 10.8a3.74 3.74 0 01-1.52 1.22c-.15.4 1.59 1.09 2 1.25.94.36 1.34-.45 2-1.44s4-7.44 5.27-10.69a.87.87 0 01.61-.45 14.82 14.82 0 01-.42 2.34c-.14.52-1.29 5.64-1.28 6.3s1.66 1.54 2.38 1.86c.91.41 2.59-.64 3.41-1.29 1.14-.92 6.14-5.07 7.42-6.08a8.35 8.35 0 002.54-2.37c.45-.77-.54-2.4-1.46-3.09s-2.12-.23-3.11.75a15.29 15.29 0 00-3.5 5.7c-.55 1.86-1.22 4.21-.48 5 1 1.1 2.1 2.16 3.51 1.63a48.45 48.45 0 008.12-5c1.06-.87-2.15-2.31-2.15-2.31A7.18 7.18 0 0182.55 74a31.72 31.72 0 01-4.07 3.08c-.91.45-3.48.36-2.83-2.37.52-2.15 1.45-4.94 2.86-5.63.81-.4 1.09.49 1.23.87.28.73-2.14 2.56-4.32 4.64a25.23 25.23 0 01-3.89 3c-.53.41-1.28-.59-1.2-1.24.13-.94 1.23-7.74 1.23-8.61s-3.87.57-3.87.57z" transform="translate(-1.23 -1.65)"/><path d="M51.13 24.2c-.05 2.39 1.61 6.72 4.57 6.22 3.75-.63 3.56-5.73 2.42-8.49a5.52 5.52 0 00-7.37-3c-2.35 1.09-3.34 3.68-3.29 6.16a17.84 17.84 0 002.86 9.62c1.89 2.85 6.56 1.28 8.85-.09 1.83-1.11 9.67-6.43 6.51-9.53-2.32-2.28-6.34-.29-8.28 1.48-.43.4 1 .54 1.3.22 3.77-3.42 6.08.25 3.74 3.41-1.63 2.17-6.92 6.48-9.37 4.21-2.22-2.06-4.33-10.27-2.8-13.42 1.38-2.83 4.34-.93 5.39 1.34 1.14 2.47 1.07 7.43-.47 6.56S53 25.33 53 23.7c0-.34-1.84-.08-1.85.5z" transform="translate(-1.23 -1.65)" fill="#c7bf2f"/><path d="M124.42 53.58c0-7 4.5-11.09 11.37-11.09 7.23 0 10.75 4.66 10.75 11.15 0 6.84-4.17 11.19-11.34 11.19-6.99 0-10.78-4.54-10.78-11.25zm18.78 0c0-4.81-2.64-8.46-7.69-8.46-5.27 0-7.78 3.65-7.78 8.39s2.42 8.58 7.56 8.58c5.49.04 7.91-3.66 7.91-8.48zm6.42-5.85h3.19V49a8.18 8.18 0 014.47-1.72c4.41 0 7 2.76 7 8.18 0 7-4 9.29-8.42 9.29a21.43 21.43 0 01-3-.25v6.7h-3.19V47.73zM161 56c0-3.37-.95-5.94-4.53-5.94a8.68 8.68 0 00-3.64 1.25v10.61a16.77 16.77 0 003.13.3c3.31 0 5.04-2.66 5.04-6.22zm6.37-8.27h11v2.55h-7.81v14.18h-3.19V47.73zm12.11 12.16c0-4.14 3.74-5 6.65-5.05l3.67-.06v-1.87c0-2.33-1.22-2.82-3.92-2.82a19.18 19.18 0 00-4.42.77l-.64-2.42a15.36 15.36 0 015.76-1.11c4.13 0 6.34 1.28 6.34 4.72v8.76c0 1 .73 1.26 1.53 1.32l-.16 2.48a4.2 4.2 0 01-.67 0c-1.56 0-3.31-.55-3.58-2a8.82 8.82 0 01-5.51 2.08c-3.18.01-5.05-1.64-5.05-4.8zm10.32.8v-3.86l-3.58.16c-2.3.06-3.62 1.1-3.62 2.63 0 1.9 1.1 2.54 2.7 2.54 1.78 0 3.86-1.16 4.5-1.47zm7.59-12.96h3.18v7.08h7.9v-7.08h3.19v16.73h-3.19v-7.11h-7.9v7.11h-3.18V47.73zm18.28 0h3.18V58l-.06 2.24 1.44-2.27 7.13-10.21h3.19v16.7h-3.19V54.29l.07-2.3-1.43 2.33-7.14 10.14h-3.18V47.73zm18.91 0h3.18v16.73h-3.18V47.73zm8 13.86l-4.66-5.7 6.52-8.15h3.65l-6.71 7.91 3.21 3.68a8.9 8.9 0 004.14 3l-.52 2.39c-1.62-.07-3.46-.45-5.67-3.14zM258 47.73h4.2L267.08 62l5.39-14.28h4.08v16.74h-3v-9.38l.12-3.28L269 64.46h-3.83l-4.27-12.72.18 3.34v9.37h-3V47.73zm21.27 12.16c0-4.14 3.74-5 6.65-5.05l3.68-.06v-1.87c0-2.33-1.22-2.82-3.92-2.82a19.1 19.1 0 00-4.41.77l-.64-2.42a15.34 15.34 0 015.76-1.11c4.13 0 6.34 1.28 6.34 4.72v8.76c0 1 .74 1.26 1.53 1.32l-.16 2.48a4.21 4.21 0 01-.67 0c-1.56 0-3.31-.55-3.59-2a8.81 8.81 0 01-5.51 2.08c-3.18.01-5.06-1.64-5.06-4.8zm10.33.8v-3.86L286 57c-2.3.06-3.62 1.1-3.62 2.63 0 1.9 1.11 2.54 2.69 2.54 1.8-.01 3.93-1.17 4.53-1.48zm7.59-12.96h3.18V49a8.21 8.21 0 014.47-1.72c4.41 0 7 2.76 7 8.18 0 7-4 9.29-8.42 9.29a21.57 21.57 0 01-3-.25v6.7h-3.18V47.73zM308.55 56c0-3.37-.95-5.94-4.54-5.94a8.67 8.67 0 00-3.65 1.25v10.61a16.87 16.87 0 003.12.3c3.36 0 5.07-2.66 5.07-6.22zm6.39-8.27h3.19v16.73h-3.19V47.73zm8 13.86l-4.65-5.7 6.52-8.15h3.64l-6.7 7.91 3.21 3.68a8.9 8.9 0 004.14 3l-.52 2.39c-1.63-.07-3.47-.45-5.68-3.14zm7.21-5.22c0-6.77 3.37-9.07 7.81-9.07s6.4 3 6.4 8.43v1.14h-11c.06 4.56 2.51 5.3 5.76 5.3a23.85 23.85 0 004.32-.67L344 64a18.87 18.87 0 01-5.57.8c-5.06.03-8.28-1.93-8.28-8.43zM341 54.63c0-3-1.07-5-3.44-5s-3.92 1.72-4.16 5h7.6zm10.2-4.35h-5.54v-2.55H360v2.55h-5.58v14.18h-3.22V50.28z" transform="translate(-1.23 -1.65)"/></svg>