<svg xmlns="http://www.w3.org/2000/svg" width="220" height="67"><defs><linearGradient id="a" x1="1.585%" x2="105.637%" y1="8.109%" y2="65.327%"><stop offset="0%" stop-color="#62BBEC"/><stop offset="100%" stop-color="#C20067"/></linearGradient><linearGradient id="b" x1="66.789%" x2="45.103%" y1="-1.872%" y2="105.546%"><stop offset="0%" stop-color="#FFE900"/><stop offset="22%" stop-color="#DBD600"/><stop offset="100%" stop-color="#498DCA"/></linearGradient><linearGradient id="c" x1="100.015%" x2=".003%" y1="49.996%" y2="49.996%"><stop offset="0%" stop-color="#72247F"/><stop offset="100%" stop-color="#C20070"/></linearGradient><linearGradient id="d" x1="67.832%" x2="-1.999%" y1="18.399%" y2="72.443%"><stop offset="0%" stop-color="#6D9ED3"/><stop offset="50%" stop-color="#3D458C"/><stop offset="70%" stop-color="#552A80"/></linearGradient><linearGradient id="e" x1="72.693%" x2=".233%" y1="11.472%" y2="97.485%"><stop offset="0%" stop-color="#DBD600"/><stop offset="23%" stop-color="#DA8911"/><stop offset="39%" stop-color="#CC3814"/><stop offset="50%" stop-color="#C20016"/><stop offset="83%" stop-color="#C2004F"/><stop offset="100%" stop-color="#C20067"/></linearGradient></defs><g fill="none"><path d="M41.898 37.47a6.055 6.055 0 00-3.709-11.049c-5.88 0-6.341 4.805-6.341 6.286v.104h3.569v-.097c.104-1.837 1.033-2.794 2.793-2.794 1.125 0 2.438.698 2.438 2.794 0 1.229-.573 3.29-4.386 3.29h-.105v3.407h.105c4.525 0 4.888 2.522 4.888 3.297 0 2.312-1.473 3.492-2.933 3.492-1.844 0-3.003-1.034-3.094-2.794v-.049h-3.569v.105c0 3.122 2.096 6.286 6.67 6.286a6.984 6.984 0 006.866-6.984 5.727 5.727 0 00-3.192-5.294zM7.124 26.421H.719v23.306h4.002v-8.465h2.096c5.133 0 7.43-3.75 7.43-7.466-.02-4.756-2.542-7.375-7.123-7.375zm-.328 11.175H4.7v-7.732h2.368c2.095 0 3.164 1.327 3.164 3.953.02 1.753-.88 3.793-3.436 3.793v-.014zm16.161-11.503c-4.791 0-7.431 4.19-7.431 11.873 0 7.682 2.682 12.117 7.361 12.117 4.68 0 7.459-4.442 7.459-12.18.007-7.627-2.619-11.81-7.39-11.81zm0 20.358c-2.13 0-3.262-2.96-3.262-8.57 0-5.503 1.048-8.178 3.199-8.178s3.29 2.794 3.29 8.242c0 5.447-1.118 8.506-3.227 8.506zm32.651-19.946v-.077h-4.19l-5.63 23.18v.133h4.142l1.124-5.015h5.015l1.054 5.015h4.19l-5.705-23.236zm-2.151 5.468c.258 1.788.698 4.023 1.117 6.195l.698 3.038h-3.569l.699-3.003c.412-2.381.824-4.56 1.061-6.237l-.006.007zM1.683 61.719h.6c.354.033.705-.087.965-.329.243-.278.388-.629.412-.998.07-.468.063-.943.14-1.306a1.236 1.236 0 011.57-.978v.761a.698.698 0 00-.516.105.698.698 0 00-.244.573c-.063.572-.084.943-.168 1.396a1.23 1.23 0 01-.936 1.09 1.46 1.46 0 011.117 1.02c.113.405.172.823.175 1.243a2.04 2.04 0 00.14.831c.14.185.374.273.6.223v.762a.761.761 0 01-.384.09 1.334 1.334 0 01-.775-.237c-.23-.212-.375-.5-.412-.81-.035-.189-.056-.412-.133-1.125a1.648 1.648 0 00-.482-1.313 1.53 1.53 0 00-.88-.237h-.796v3.674H.691v-8.04h.985v3.605h.007zm6.125-3.604l1.823 4.791 1.565-4.791h.894l-1.998 5.95a5.008 5.008 0 01-.775 1.725c-.34.377-.835.575-1.341.538-.2.007-.399-.024-.587-.09v-.86c.173.06.355.088.538.084.354.013.69-.158.887-.454.182-.262.315-.556.391-.866l-2.451-6.034h1.033l.021.007zm7.571 0a3.01 3.01 0 012.298.698c.421.452.65 1.052.635 1.67a2.48 2.48 0 01-.6 1.69 2.99 2.99 0 01-2.34.698h-.754v3.276h-.985v-8.032h1.746zm-.754 3.953h.754a2.214 2.214 0 001.571-.42c.235-.31.351-.693.329-1.082a1.467 1.467 0 00-1.9-1.634h-.754v3.136zm9.945-3.345c.824.88.971 2.36.971 3.429 0 1.068-.154 2.57-.97 3.429a2.535 2.535 0 01-1.88.761 2.577 2.577 0 01-1.864-.698c-.797-.796-1.034-2.305-1.034-3.492 0-2.277.775-3.206 1.034-3.492a2.724 2.724 0 013.743.063zm-3.492 1.396a7.543 7.543 0 00-.258 2.04 7.683 7.683 0 00.258 2.04c.125.774.8 1.34 1.585 1.326a1.634 1.634 0 001.586-1.327c.19-.663.276-1.35.258-2.04a6.649 6.649 0 00-.258-2.039 1.634 1.634 0 00-1.586-1.327 1.578 1.578 0 00-1.578 1.327h-.007zm8.102-2.004a3.01 3.01 0 012.297.698 2.37 2.37 0 01.636 1.67 2.486 2.486 0 01-.6 1.69 2.996 2.996 0 01-2.34.698h-.755v3.276h-.984v-8.032h1.746zm-.755 3.953h.755a2.214 2.214 0 001.571-.42c.234-.31.35-.693.328-1.082a2.04 2.04 0 00-.342-1.194 2.011 2.011 0 00-1.564-.433h-.755v3.136l.007-.007zm9.436-3.953v.824h-1.928v7.229h-.984v-7.236H33.02v-.824h4.84zM155.48 26.421l-2.772 7.11-2.738-7.04-.028-.07h-4.449l4.994 11.328-4.93 11.838-.064.147h4.456l2.759-7.396 2.766 7.396h4.456l-4.994-11.985 4.994-11.328zm56.97 0h-6.404v23.306h4.002v-8.465h2.095c5.133 0 7.431-3.75 7.431-7.466-.028-4.756-2.55-7.375-7.124-7.375zm-.328 11.175h-2.095v-7.732h2.367c2.096 0 3.164 1.334 3.164 3.953-.014 1.753-.887 3.793-3.436 3.793v-.014zm-36.157-7.529h4.554v19.667h4.071V30.067h4.589V26.42h-13.214zm20.45-3.974c-4.792 0-7.432 4.19-7.432 11.873 0 7.682 2.682 12.117 7.362 12.117s7.466-4.442 7.466-12.18c0-7.62-2.626-11.81-7.396-11.81zm0 20.358c-2.13 0-3.262-2.96-3.262-8.57 0-5.607 1.048-8.178 3.192-8.178s3.296 2.794 3.296 8.242c0 5.447-1.117 8.506-3.226 8.506zm-28.209-8.897l-2.996-11.056v-.077h-4.45l5.378 17.663a2.794 2.794 0 01-2.96 2.095h-.106v3.576h.091c3.401 0 5.476-1.488 6.537-4.693l5.441-18.48.042-.133h-4.337l-2.64 11.105z" fill="#2C3386"/><path fill="url(#a)" d="M21.923 9.023L8.465 7.843C1.04 7.145-2.43 11.07 3.506 17.956L17.09 33.67c3.688 4.233 7.983 5.05 8.94-2.011l1.809-13.486c1.145-8.2.125-8.654-5.916-9.15zm3.492 8.752l-1.473 9.463c-.894 5.427-2.096 6.104-5.972 1.132l-6.893-8.856c-3.583-4.61-2.794-6.02 2.095-5.86l9.22.37c2.13 0 3.533.594 3.044 3.75h-.02z" transform="translate(58.667)"/><path fill="url(#b)" d="M54.846 26.826c-11.523 16.762-5.238 16.971 5.029 14.038l11.314-3.143c9.848-2.724 10.267-2.514 9.429-11.104l-.838-9.43c-1.257-14.875-7.753-15.294-15.924-3.351l-9.01 12.99zm4.82 11.733c-7.963 2.515-6.286-1.676-3.563-5.657L66.58 18.236c4.19-6.077 5.238-2.934 6.285 2.095l1.677 8.38c.628 3.353.838 5.03-3.981 6.496l-10.896 3.352z" transform="translate(58.667)"/><path fill="url(#c)" d="M40.061 49.713l-2.158-24.018c-1.083-12.013-5.916-12.725-13.968-6.761l-10.477 7.683C5.42 32.58 5.685 38.35 9.924 41.758l16.162 12.99c7.466 6.035 15.155 7.879 13.975-5.035zm-11.992-1.208l-11.035-8.158c-6.753-4.993-5.161-8.276-.628-11.677l6.607-5.078c6.914-5.405 8.164.538 9.386 8.123l2.047 12.34c1.697 9.932-1.767 7.928-6.377 4.45z" transform="translate(58.667)"/><path fill="url(#d)" d="M65.867 33.51l-18.64-11.363c-3.75-2.347-8.703-5.65-6.635 6.285l2.521 14.946c1.767 10.637 4.079 14.032 11.496 9.443l12.173-7.466c8.619-5.273 6.349-7.41-.915-11.845zm-6.502 10.546l-4.03 2.528c-4.19 2.647-6.23 1.397-7.564-3.701L44.19 28.879c-1.216-4.965-.084-5.021 3.408-2.563l11.684 8.325c5.176 3.828 4.01 6.998.084 9.415z" transform="translate(58.667)"/><path fill="url(#e)" d="M54.91 12.076l-9.78-9.024c-7.095-6.572-10.224-1.774-12.09 7.2l-5.3 25.29c-2.577 12.334 2.55 12.718 10.148 4.777l14.813-15.518c7.592-7.948 6.733-8.472 2.207-12.725zm-6.573 11.873L36.75 36.904c-4.26 4.77-7.284 5.587-5.23-1.264l6.983-22.866c1.097-3.604 1.88-4.714 4.442-2.263l6.112 5.797c2.912 2.71 1.857 4.812-.72 7.62v.02z" transform="translate(58.667)"/><path fill="url(#b)" d="M54.846 26.826c-11.523 16.762-5.238 16.971 5.029 14.038l11.314-3.143c9.848-2.724 10.267-2.514 9.429-11.104l-.838-9.43c-1.257-14.875-7.753-15.294-15.924-3.351l-9.01 12.99zm4.82 11.733c-7.963 2.515-6.286-1.676-3.563-5.657L66.58 18.236c4.19-6.077 5.238-2.934 6.285 2.095l1.677 8.38c.628 3.353.838 5.03-3.981 6.496l-10.896 3.352z" transform="translate(58.667)"/><path fill="url(#a)" d="M21.923 9.023L8.465 7.843C1.04 7.145-2.43 11.07 3.506 17.956L17.09 33.67c3.688 4.233 7.983 5.05 8.94-2.011l1.809-13.486c1.145-8.2.125-8.654-5.916-9.15zm3.492 8.752l-1.473 9.463c-.894 5.427-2.096 6.104-5.972 1.132l-6.893-8.856c-3.583-4.61-2.794-6.02 2.095-5.86l9.22.37c2.13 0 3.533.594 3.044 3.75h-.02z" transform="translate(58.667)"/><path fill="url(#d)" d="M65.867 33.51l-18.64-11.363c-3.75-2.347-8.703-5.65-6.635 6.285l2.521 14.946c1.767 10.637 4.079 14.032 11.496 9.443l12.173-7.466c8.619-5.273 6.349-7.41-.915-11.845zm-6.502 10.546l-4.03 2.528c-4.19 2.647-6.23 1.397-7.564-3.701L44.19 28.879c-1.216-4.965-.084-5.021 3.408-2.563l11.684 8.325c5.176 3.828 4.01 6.998.084 9.415z" transform="translate(58.667)"/><path fill="url(#c)" d="M40.061 49.713l-2.158-24.018c-1.083-12.013-5.916-12.725-13.968-6.761l-10.477 7.683C5.42 32.58 5.685 38.35 9.924 41.758l16.162 12.99c7.466 6.035 15.155 7.879 13.975-5.035zm-11.992-1.208l-11.035-8.158c-6.753-4.993-5.161-8.276-.628-11.677l6.607-5.078c6.914-5.405 8.164.538 9.386 8.123l2.047 12.34c1.697 9.932-1.767 7.928-6.377 4.45z" transform="translate(58.667)"/></g></svg>